<svg xmlns="http://www.w3.org/2000/svg" version="1.1" xmlns:xlink="http://www.w3.org/1999/xlink" xmlns:svgjs="http://svgjs.dev/svgjs" width="2000" height="1247" viewBox="0 0 2000 1247">
    <g transform="matrix(1,0,0,1,-1.2121212121212466,0.5048582995952984)">
        <svg viewBox="0 0 396 247" data-background-color="#28353b" preserveAspectRatio="xMidYMid meet" height="1247" width="2000" xmlns="http://www.w3.org/2000/svg" xmlns:xlink="http://www.w3.org/1999/xlink">
            <g id="tight-bounds" transform="matrix(1,0,0,1,0.2400000000000091,-0.09999999999999432)">
                <svg viewBox="0 0 395.52 247.2" height="247.2" width="395.52">
                    <g>
                        <svg></svg>
                    </g>
                    <g>
                        <svg viewBox="0 0 395.52 247.2" height="247.2" width="395.52">
                            <g transform="matrix(1,0,0,1,75.54432,97.2717769952202)">
                                <svg viewBox="0 0 244.43135999999998 52.65644600955961" height="52.65644600955961" width="244.43135999999998">
                                    <g>
                                        <svg viewBox="0 0 326.87754897368745 70.41735565056035" height="52.65644600955961" width="244.43135999999998">
                                            <g transform="matrix(1,0,0,1,0,9.732065795410296)">
                                                <svg viewBox="0 0 244.43135999999996 50.95322405973976" height="50.95322405973976" width="244.43135999999996">
                                                    <g id="textblocktransform">
                                                        <svg viewBox="0 0 244.43135999999996 50.95322405973976" height="50.95322405973976" width="244.43135999999996" id="textblock">
                                                            <g>
                                                                <svg viewBox="0 0 244.43135999999996 50.95322405973976" height="50.95322405973976" width="244.43135999999996">
                                                                    <g transform="matrix(1,0,0,1,0,0)">
                                                                        <svg width="244.43135999999996" viewBox="5 -35.04999923706055 172.61012268066406 35.64999771118164" height="50.95322405973976" data-palette-color="#ffffff">
                                                                            <g transform="matrix(1,0,0,1,0,0)">
                                                                                <g>
                                                                                    <svg width="4.673854980199029" viewBox="3.1600000858306885 -36.36000061035156 28.68000030517578 36.36000061035156" height="5.926969039905641" data-palette-color="#ffffff" id="scriptelement" x="169.4812387234582" y="-32.221523994440126">
                                                                                        <path d="M10.85 0L3.16 0 3.16-36.36 17.51-36.36Q21.63-36.36 24.55-34.9 27.47-33.43 29-30.76 30.54-28.09 30.54-24.49L30.54-24.49Q30.54-20.86 28.98-18.26 27.41-15.66 24.46-14.28 21.5-12.89 17.31-12.89L17.31-12.89 7.71-12.89 7.71-19.07 16.07-19.07Q18.27-19.07 19.73-19.67 21.18-20.28 21.9-21.48 22.62-22.69 22.62-24.49L22.62-24.49Q22.62-26.3 21.9-27.54 21.18-28.78 19.72-29.43 18.25-30.08 16.03-30.08L16.03-30.08 10.85-30.08 10.85 0ZM14.51-16.55L22.8-16.55 31.84 0 23.35 0 14.51-16.55Z" opacity="1" transform="matrix(1,0,0,1,0,0)" fill="#ffffff" class="undefined-123" id="p-123"></path>
                                                                                    </svg>
                                                                                </g>
                                                                            </g>
                                                                            <path d="M166.026-29.258C166.026-32.457 168.619-35.05 171.818-35.05 175.017-35.05 177.61-32.457 177.61-29.258 177.61-26.059 175.017-23.466 171.818-23.466 168.619-23.466 166.026-26.059 166.026-29.258ZM171.818-24.019C174.712-24.019 177.057-26.365 177.057-29.258 177.057-32.152 174.712-34.497 171.818-34.497 168.925-34.497 166.579-32.152 166.579-29.258 166.579-26.365 168.925-24.019 171.818-24.019Z" fill="#ffffff" id="scriptcircle" data-fill-palette-color="primary"></path>
                                                                            <path d="M5-34.45L9.75-34.45 9.75-4.15 23.9-4.15 23.35 0 5 0 5-34.45ZM29.9-34.45L34.65-34.45 34.65 0 29.9 0 29.9-34.45ZM53.15-35.05Q56.59-35.05 59.05-34.08 61.5-33.1 63.8-31.05L63.8-31.05 61.2-28.15Q59.25-29.7 57.37-30.43 55.5-31.15 53.35-31.15L53.35-31.15Q50.65-31.15 48.9-29.9 47.15-28.65 47.15-26.25L47.15-26.25Q47.15-24.75 47.75-23.73 48.35-22.7 49.97-21.85 51.6-21 54.7-20.05L54.7-20.05Q57.95-19.05 60.1-17.9 62.25-16.75 63.57-14.73 64.9-12.7 64.9-9.6L64.9-9.6Q64.9-6.6 63.42-4.3 61.95-2 59.17-0.7 56.4 0.6 52.6 0.6L52.6 0.6Q45.45 0.6 40.9-3.85L40.9-3.85 43.5-6.75Q45.6-5.05 47.75-4.17 49.9-3.3 52.55-3.3L52.55-3.3Q55.75-3.3 57.84-4.88 59.95-6.45 59.95-9.45L59.95-9.45Q59.95-11.15 59.3-12.28 58.65-13.4 57.07-14.3 55.5-15.2 52.5-16.1L52.5-16.1Q47.2-17.7 44.75-19.95 42.3-22.2 42.3-26.05L42.3-26.05Q42.3-28.65 43.67-30.7 45.05-32.75 47.52-33.9 50-35.05 53.15-35.05L53.15-35.05ZM71.89-34.45L76.64-34.45 76.64-4.15 90.79-4.15 90.24 0 71.89 0 71.89-34.45ZM120.14 0L115.14 0 112.54-8.65 99.49-8.65 96.89 0 92.09 0 103.14-34.45 109.14-34.45 120.14 0ZM106.04-30.5L100.64-12.5 111.39-12.5 106.04-30.5ZM125.44-34.45L130.19-34.45 130.19 0 125.44 0 125.44-34.45ZM164.34-34.45L164.34 0 157.99 0 143.99-29.25Q144.29-25.8 144.46-22.88 144.64-19.95 144.64-15.8L144.64-15.8 144.64 0 140.19 0 140.19-34.45 146.39-34.45 160.54-5.15Q160.39-6.45 160.14-9.7 159.89-12.95 159.89-15.65L159.89-15.65 159.89-34.45 164.34-34.45Z" opacity="1" transform="matrix(1,0,0,1,0,0)" fill="#ffffff" class="undefined-text-0" data-fill-palette-color="primary" id="text-0"></path>
                                                                        </svg>
                                                                    </g>
                                                                </svg>
                                                            </g>
                                                        </svg>
                                                    </g>
                                                </svg>
                                            </g>
                                            <g transform="matrix(1,0,0,1,256.4601933231271,0)">
                                                <svg viewBox="0 0 70.41735565056035 70.41735565056035" height="70.41735565056035" width="70.41735565056035">
                                                    <g data-palette-color="#fe6152">
                                                        <rect width="19.247410544486495" height="70.41735565056035" fill="#fe6152" stroke="transparent" data-fill-palette-color="accent" x="0" fill-opacity="1"></rect>
                                                        <rect width="19.247410544486495" height="70.41735565056035" fill="#fe6152" stroke="transparent" data-fill-palette-color="accent" x="23.472451883520115" fill-opacity="0.75"></rect>
                                                        <rect width="19.247410544486495" height="70.41735565056035" fill="#fe6152" stroke="transparent" data-fill-palette-color="accent" x="46.94490376704023" fill-opacity="0.5"></rect>
                                                    </g>
                                                </svg>
                                            </g>
                                        </svg>
                                    </g>
                                </svg>
                            </g>
                            <g>
                                <path d="M245.816 0c68.262 0 123.6 55.338 123.6 123.6 0 68.262-55.338 123.6-123.6 123.6-57.619 0-106.03-39.427-119.725-92.774h1.774c13.653 52.388 61.286 91.056 117.951 91.056 67.314 0 121.882-54.568 121.882-121.882 0-67.314-54.568-121.882-121.882-121.882-56.664 0-104.297 38.668-117.951 91.056l-1.774 0c13.695-53.347 62.106-92.774 119.725-92.774z" fill="#ffffff" stroke="transparent" data-fill-palette-color="tertiary"></path>
                            </g>
                        </svg>
                    </g>
                    <defs></defs>
                </svg>
                <rect width="395.52" height="247.2" fill="none" stroke="none" visibility="hidden"></rect>
            </g>
        </svg>
    </g>
</svg>
